<?xml version="1.0" standalone="no"?>
<!DOCTYPE svg PUBLIC "-//W3C//DTD SVG 20010904//EN"
 "http://www.w3.org/TR/2001/REC-SVG-20010904/DTD/svg10.dtd">
<svg version="1.0" xmlns="http://www.w3.org/2000/svg"
 width="700.000000pt" height="700.000000pt" viewBox="0 0 700.000000 700.000000"
 preserveAspectRatio="xMidYMid meet">
<metadata>
Created by potrace 1.14, written by Peter Selinger 2001-2017
</metadata>
<g transform="translate(0.000000,700.000000) scale(0.100000,-0.100000)"
fill="#000000" stroke="none">
<path d="M0 5250 l0 -1750 817 0 c449 0 814 -2 812 -4 -2 -2 -35 -6 -74 -9
-254 -20 -566 -136 -794 -295 -211 -146 -400 -348 -514 -547 -51 -88 -103
-194 -122 -245 -52 -143 -66 -190 -85 -275 -29 -135 -35 -199 -34 -380 0 -145
6 -230 20 -296 2 -13 9 -47 15 -76 18 -93 79 -266 134 -381 262 -546 779 -911
1390 -981 73 -9 355 -7 415 3 210 33 346 74 516 156 227 107 402 238 553 411
96 110 101 117 157 200 146 219 254 512 280 759 3 36 8 67 10 69 2 2 4 -359 4
-802 l0 -807 1750 0 1750 0 0 1750 0 1750 -802 0 c-441 0 -799 2 -797 4 2 2
32 7 65 10 120 11 288 54 419 106 400 159 726 453 919 830 58 114 137 321 149
395 3 17 10 53 16 80 6 28 13 68 17 90 10 62 13 364 4 426 -5 29 -11 72 -14
94 -7 51 -11 71 -31 148 -9 34 -18 69 -20 77 -10 43 -70 190 -114 278 -121
242 -297 450 -529 625 -34 26 -64 47 -67 47 -2 0 -23 13 -47 29 -46 31 -220
121 -235 121 -4 0 -21 7 -38 16 -45 23 -240 80 -325 94 -41 7 -86 15 -100 17
-14 2 -99 6 -190 8 -311 6 -570 -55 -840 -196 -365 -192 -636 -486 -802 -870
-62 -145 -99 -282 -123 -459 -11 -83 -13 9 -14 718 l-1 812 -1750 0 -1750 0 0
-1750z m3507 -142 c-3 -8 -6 -5 -6 6 -1 11 2 17 5 13 3 -3 4 -12 1 -19z m7
-77 c4 -30 9 -64 11 -75 5 -22 12 -60 21 -111 12 -65 87 -272 130 -358 99
-195 192 -325 339 -472 246 -246 552 -412 890 -481 19 -4 52 -9 150 -24 28 -4
-311 -8 -752 -9 l-803 -1 -1 -807 -1 -808 -17 115 c-89 578 -432 1053 -950
1315 -86 43 -234 103 -278 111 -12 2 -34 8 -47 14 -35 13 -180 40 -251 47 -33
3 -62 7 -64 9 -2 2 359 4 802 4 l807 0 0 797 c0 438 2 794 4 792 2 -2 7 -28
10 -58z"/>
</g>
</svg>
